<?xml version="1.0" encoding="UTF-8"?>
<svg id="Camada_2" data-name="Camada 2" xmlns="http://www.w3.org/2000/svg" viewBox="0 0 59.1 71.92">
  <defs>
    <style>
      .cls-1 {
        fill: #ce5424;
      }
    </style>
  </defs>
  <g id="Camada_1-2" data-name="Camada 1">
    <g>
      <path class="cls-1" d="M52.88,22.16c-1.15,0-2.22,.32-3.15,.86-.23-6.79-3.79-12.73-9.12-16.22l3.4-5.06-2.58-1.74-3.56,5.3c-2.54-1.15-5.35-1.81-8.32-1.81s-5.82,.67-8.37,1.83L17.63,.05l-2.58,1.73,3.39,5.05c-5.3,3.5-8.84,9.42-9.07,16.19-.92-.54-2-.86-3.15-.86-3.44,0-6.22,2.78-6.22,6.22v17.11c0,3.44,2.78,6.22,6.22,6.22,1.13,0,2.2-.31,3.11-.84v2.39c0,2.58,2.09,4.67,4.67,4.67h1.55v7.78c0,3.44,2.79,6.22,6.22,6.22s6.22-2.79,6.22-6.22v-7.78h3.11v7.78c0,3.44,2.78,6.22,6.22,6.22s6.22-2.79,6.22-6.22v-7.78h1.56c2.58,0,4.67-2.09,4.67-4.67v-2.39c.92,.53,1.98,.84,3.11,.84,3.44,0,6.22-2.79,6.22-6.22V28.38c0-3.44-2.78-6.22-6.22-6.22ZM29.55,6.6c8.92,0,16.24,6.83,17.03,15.55H12.52c.79-8.72,8.11-15.55,17.03-15.55ZM6.22,48.59c-1.72,0-3.11-1.39-3.11-3.11V28.38c0-1.72,1.39-3.11,3.11-3.11s3.11,1.39,3.11,3.11v17.11c0,1.72-1.39,3.11-3.11,3.11Zm40.44,4.67c0,.86-.7,1.55-1.56,1.55h-4.67v10.89c0,1.72-1.39,3.11-3.11,3.11s-3.11-1.39-3.11-3.11v-10.89h-9.33v10.89c0,1.72-1.39,3.11-3.11,3.11s-3.11-1.39-3.11-3.11v-10.89h-4.67c-.86,0-1.56-.7-1.56-1.55V25.27H46.66v27.99Zm9.33-7.78c0,1.72-1.39,3.11-3.11,3.11s-3.11-1.39-3.11-3.11V28.38c0-1.72,1.39-3.11,3.11-3.11s3.11,1.39,3.11,3.11v17.11Z"/>
      <rect class="cls-1" x="20.22" y="14.38" width="3.11" height="3.11"/>
      <rect class="cls-1" x="35.77" y="14.38" width="3.11" height="3.11"/>
    </g>
  </g>
</svg>