<?xml version="1.0" encoding="UTF-8"?>
<svg id="Camada_2" data-name="Camada 2" xmlns="http://www.w3.org/2000/svg" viewBox="0 0 51.78 71.56">
  <defs>
    <style>
      .cls-1 {
        fill: #ce5424;
      }
    </style>
  </defs>
  <g id="Camada_1-2" data-name="Camada 1">
    <g>
      <polygon class="cls-1" points="24.16 0 13.82 0 13.82 3.07 17.44 3.07 17.44 11.28 20.52 11.28 20.52 3.07 24.16 3.07 24.16 0"/>
      <polygon class="cls-1" points="39.83 11.28 39.83 0 36.33 0 33.41 4.81 30.48 0 26.98 0 26.98 11.28 29.99 11.28 29.99 3.96 33.37 9.17 36.75 3.96 36.75 11.28 39.83 11.28"/>
      <polygon class="cls-1" points="11 11.28 11 0 7.92 0 7.92 4.06 3.12 4.06 3.12 0 .04 0 .04 11.28 3.15 11.28 3.15 7.18 7.92 7.18 7.92 11.28 11 11.28"/>
      <polygon class="cls-1" points="42.89 0 42.89 11.28 51.78 11.28 51.78 8.24 45.96 8.24 45.96 0 42.89 0"/>
      <path class="cls-1" d="M4.96,65.9l20.75,5.66,20.75-5.66,4.96-51.72H0l4.96,51.72Zm38.35-2.65l-17.6,4.8-17.6-4.8L3.73,17.57H47.7l-4.38,45.68Z"/>
      <path class="cls-1" d="M31.15,45.11l-.33,5.15-4.97,1.62-5.24-1.62v-2.81H10.99v9.66l14.85,4.62,13.84-4.03,1.8-21.85-21.74-.25-.25-2.25h22.06s0-9.27,0-9.27H8.82l2.35,21.01H31.15Zm7.02-17.62v2.49H15.71s1.01,8.99,1.01,8.99l21.1,.24-1.31,15.89-10.62,3.09-11.5-3.58v-3.78h2.84v1.92l8.66,2.67,8.18-2.67,.71-11.05H14.2l-1.59-14.23h25.56Z"/>
    </g>
  </g>
</svg>