<?xml version="1.0" encoding="UTF-8"?>
<svg id="Camada_2" data-name="Camada 2" xmlns="http://www.w3.org/2000/svg" viewBox="0 0 60.35 71.48">
  <defs>
    <style>
      .cls-1 {
        fill: #ce5424;
      }
    </style>
  </defs>
  <g id="Camada_1-2" data-name="Camada 1">
    <g>
      <path class="cls-1" d="M46.6,1.55V0h-1.55c-10.16,0-15.54,5.38-15.54,15.54v1.55h1.55c10.16,0,15.54-5.38,15.54-15.54Zm-3.17,1.61c-.45,6.86-3.9,10.31-10.78,10.78,.49-6.78,4.02-10.31,10.78-10.78Z"/>
      <path class="cls-1" d="M58.59,52.66c-5.74-.92-10.07-5.7-10.43-11.5-.35-5.8,3.37-11.07,8.95-12.68l2.18-.62-1.36-1.81c-3.57-4.7-8.82-7.4-14.43-7.4-1.92,0-3.82,.32-5.63,.95l-5.75,2c-.66,.23-1.38,.23-2.04,0l-5.77-2c-1.82-.63-3.73-.95-5.65-.95C8.37,18.65,0,27.72,0,38.85c0,18.3,8.2,32.63,18.65,32.63,2.5,0,4.97-.61,7.19-1.77,3.27-1.75,7.2-1.75,10.47,0,2.22,1.16,4.68,1.77,7.19,1.77,6.82,0,13.09-6.45,16.32-16.82l.54-1.71-1.77-.29Zm-15.09,15.72c-2,0-3.98-.48-5.75-1.42-2.06-1.09-4.35-1.67-6.68-1.69-2.33,.02-4.62,.6-6.68,1.69-1.77,.94-3.75,1.42-5.75,1.42-8.43,0-15.54-13.52-15.54-29.53,0-9.42,6.97-17.09,15.54-17.09,1.57,0,3.14,.26,4.62,.78l5.79,2c1.32,.45,2.74,.45,4.06,0l5.77-2c1.49-.51,3.05-.78,4.62-.78,3.96,0,7.71,1.65,10.57,4.57-5.48,2.56-8.99,8.04-9.01,14.08-.02,6.95,4.59,13.06,11.29,14.94-2.91,8.08-7.75,13.03-12.84,13.03Z"/>
    </g>
  </g>
</svg>