<?xml version="1.0" encoding="UTF-8"?>
<svg id="Camada_2" data-name="Camada 2" xmlns="http://www.w3.org/2000/svg" viewBox="0 0 64.08 71.48">
  <defs>
    <style>
      .cls-1 {
        fill: #ce5424;
      }
    </style>
  </defs>
  <g id="Camada_1-2" data-name="Camada 1">
    <g id="GImJkU">
      <g>
        <path class="cls-1" d="M26.7,11.26c-.85,2.61-2.4,4.25-5.17,4.2-2.66-.05-4.21-1.62-5-4.1-.35,.39-.38,.89-.61,1.29-1.09,1.89-2.67,2.93-4.89,2.82-1.71-.09-2.91-1.1-3.86-2.43-.58-.81-.87-1.72-.87-2.72,0-.11,.01-.23,0-.34-.25-1.73,.3-3.18,1.42-4.5,1.42-1.66,2.83-3.32,4.55-4.68,.44-.35,.89-.54,1.45-.55,3.19-.06,6.38-.15,9.57-.19,5.81-.08,11.62-.07,17.43,0,3.09,.04,6.19,.13,9.28,.18,.78,.01,1.42,.26,2.01,.77,2.03,1.76,3.85,3.71,5.3,5.98,.3,.46,.44,.96,.42,1.51-.02,.55,0,1.1-.01,1.65-.05,2.3-1.52,4.34-3.69,5.12-1.7,.61-3.95-.07-5.2-1.56-.46-.54-.83-1.13-1.06-1.8-.05-.15-.03-.39-.26-.37-.18,.01-.17,.22-.22,.36-.63,1.74-1.8,2.94-3.6,3.41-2.59,.68-5.22-.75-6.1-3.29-.08-.23-.16-.46-.28-.76-.9,2.67-2.59,4.25-5.4,4.2-2.68-.05-4.31-1.59-5.2-4.21Z"/>
        <path class="cls-1" d="M53.8,28.14c.03,3.27,.06,6.53-.21,9.79-.14,1.74-.41,3.47-.96,5.13-.15,.46-.42,.89-.65,1.32-.2,.35-.53,.53-.92,.6-2.04,.38-4.1,.64-6.17,.82-1.41,.12-2.82,.27-4.23,.31-2.2,.07-4.4,.15-6.6,.15-4.48,0-8.96-.03-13.43-.35-2.56-.18-5.1-.44-7.62-.92-.46-.09-.8-.29-1.04-.7-.64-1.08-.95-2.27-1.16-3.49-.69-4.04-.64-8.13-.63-12.21,.01-3.49,0-6.99,.3-10.47,.08-.93,.07-.93,.99-.97,1.77-.06,3.15-.89,4.3-2.16q.55-.61,1.09,0c2.54,2.96,6.85,2.91,9.32-.11,.42-.52,.54-.53,.93,0,2.36,3.1,7.5,3.05,9.79,0,.4-.53,.52-.52,.93,0,2.38,3.05,7.08,3.04,9.43-.01,.37-.48,.46-.49,.85-.03,1.2,1.41,2.69,2.25,4.57,2.33,.76,.03,.83,.11,.87,.93,.09,1.84,.19,3.68,.24,5.52,.04,1.5,0,3,0,4.5Zm-6.51,13.1c.43-.02,.91-.02,1.37-.08,1.26-.17,2.08-.93,2.21-2.08,.08-.7,.07-1.4-.04-2.1-.22-1.45-.65-2.85-1.05-4.25-.68-2.39-1.24-4.81-2.05-7.16-.55-1.59-1.39-3.02-2.53-4.28-2.02-2.22-6.32-1.93-8.08-.07-.34,.36-.72,.56-1.26,.51-2.4-.25-4.82-.25-7.22-.04-.81,.07-1.44-.04-1.99-.64-1.37-1.51-5.51-1.85-7.34-.2-1.53,1.39-2.52,3.09-3.13,5-1.06,3.34-1.91,6.74-2.79,10.13-.27,1.04-.45,2.12-.21,3.21,.21,.94,.67,1.66,1.68,1.85,2.11,.41,4.18,.29,6.05-.86,1.59-.98,2.62-2.41,2.92-4.28,.17-1.05,.14-1.06,1.2-.98,.09,0,.19,.02,.28,.03,3.61,.48,7.23,.53,10.85,.26,1.08-.08,2.15-.2,3.23-.32,.46-.05,.64,.12,.67,.59,.07,1.07,.48,2.03,1.09,2.89,1.48,2.07,3.58,2.89,6.11,2.87Z"/>
        <path class="cls-1" d="M27.48,62.59c0-2.6,0-5.2,0-7.8,0-.75,.07-.82,.81-.81,.95,0,1.9,.03,2.85,.03,.49,0,.66,.22,.65,.7-.02,1.23-.01,2.47,0,3.7,0,.7,.02,.7,.64,.41,1.52-.7,3.08-.81,4.64-.18,1.46,.59,2.05,1.83,2.29,3.29,.1,.64,.11,1.29,.11,1.93,0,2.16,0,4.33-.01,6.49,0,.75-.08,.83-.81,.83-.89,0-1.78,0-2.68,0-.74,0-.8-.06-.8-.82,0-2.33-.01-4.67-.02-7,0-.76-.26-1.4-1.02-1.67-.78-.28-1.45,.07-2.07,.49-.29,.2-.27,.56-.27,.89,0,2.41,0,4.82,0,7.23,0,.84-.03,.88-.85,.89-.91,0-1.82-.02-2.73,0-.54,.01-.73-.2-.72-.74,.02-2.62,0-5.24,0-7.86h0Z"/>
        <path class="cls-1" d="M64.08,64.84c0,1.71-.4,3.3-1.55,4.59-1.71,1.9-3.91,2.39-6.33,1.85-3.36-.76-4.81-3.64-4.68-6.88,.07-1.82,.66-3.41,2-4.68,.71-.67,1.58-1.06,2.51-1.26,2.3-.48,4.47-.25,6.23,1.51,1.34,1.34,1.79,3.04,1.81,4.88Zm-8.31-.08c.05,.9,.02,1.78,.53,2.55,.39,.59,.92,.88,1.63,.84,.69-.04,1.22-.36,1.48-.98,.63-1.5,.67-3.03,.06-4.54-.27-.68-.85-1.09-1.6-1.1-.7,0-1.26,.29-1.63,.94-.43,.73-.42,1.52-.47,2.28Z"/>
        <path class="cls-1" d="M20.84,71.47c-1.75-.1-3.68-.64-4.9-2.57-1-1.58-1.12-3.35-.93-5.16,.16-1.57,.76-2.95,1.93-4,1.41-1.28,3.15-1.59,4.99-1.45,1.83,.15,3.13,1.12,4.07,2.65,.25,.4,.21,.69-.21,.94-.62,.37-1.24,.74-1.83,1.15-.42,.29-.67,.19-.92-.22-.35-.58-.77-1.09-1.51-1.19-.84-.11-1.71,.3-2.02,1.16-.49,1.37-.56,2.78,.14,4.13,.36,.7,1,1.01,1.76,1.09,1.01,.1,1.92-.15,2.71-.8,.37-.3,.6-.3,.79,.19,.24,.64,.5,1.27,.81,1.88,.28,.54,.08,.84-.37,1.11-1.28,.75-2.66,1.09-4.51,1.1Z"/>
        <path class="cls-1" d="M6.98,65.15c0-.93-.02-1.86,0-2.79,.02-.59-.24-.78-.78-.72-.09,.01-.19,0-.28,0-.44,.02-.62-.21-.62-.63,0-.63,0-1.25,0-1.88,0-.43,.21-.62,.63-.61,.19,0,.38-.01,.57-.01,.31,0,.44-.15,.44-.46,0-.65,.05-1.29,.04-1.94,0-.45,.17-.68,.63-.68,1.01,0,2.01,0,3.02,0,.43,0,.6,.22,.59,.64-.02,.61,.01,1.22,0,1.82-.01,.43,.15,.63,.6,.61,.53-.02,1.06,0,1.59,0,.34,0,.54,.13,.55,.5,.03,.64,.06,1.29,.04,1.94-.02,.49-.21,.73-.73,.7-.51-.03-1.03,0-1.54,0-.37,0-.51,.16-.51,.51,0,1.63-.01,3.27,0,4.9,.01,.94,.61,1.3,1.56,1q1.02-.32,1.4,.73c.08,.23,.17,.46,.25,.7,.27,.82,.25,.97-.5,1.3-1.53,.68-3.13,.92-4.77,.41-1.42-.44-2.03-1.54-2.15-2.92-.09-1.04-.02-2.09-.02-3.13-.01,0-.03,0-.04,0Z"/>
        <path class="cls-1" d="M45.96,64.8c0-1.86,.01-3.72,0-5.58,0-.5,.15-.72,.68-.7,.97,.03,1.94,.02,2.9,0,.47,0,.7,.15,.7,.65,0,3.78,0,7.55,0,11.33,0,.47-.17,.69-.67,.68-.97-.02-1.94-.02-2.9,0-.52,.02-.71-.2-.7-.7,.01-1.9,0-3.79,0-5.69h0Z"/>
        <path class="cls-1" d="M4.32,64.86c0,1.82,0,3.64,0,5.46,0,.81-.05,.86-.88,.86-.91,0-1.82-.01-2.73,0-.47,0-.68-.19-.68-.68,.01-3.77,.02-7.54,0-11.32,0-.5,.23-.66,.69-.66,.97,.01,1.93,.02,2.9,0,.53-.01,.7,.21,.7,.71-.01,1.88,0,3.75,0,5.63h0Z"/>
        <path class="cls-1" d="M40.58,69.33c0-1.26,.92-2.14,2.22-2.14,1.27,0,2.17,.96,2.15,2.28-.02,1.13-.99,2.01-2.2,2-1.26-.01-2.18-.92-2.17-2.14Z"/>
        <path class="cls-1" d="M2.2,57.45C.73,57.44,0,56.77,0,55.44c0-1.2,.93-2.02,2.26-2.02,1.22,0,2.18,.92,2.17,2.09-.01,1.22-.86,1.95-2.23,1.94Z"/>
        <path class="cls-1" d="M48.09,57.45c-1.41-.03-2.21-.75-2.18-1.98,.02-1.26,.95-2.09,2.3-2.06,1.25,.03,2.18,.97,2.14,2.18-.04,1.17-.91,1.88-2.26,1.86Z"/>
        <path class="cls-1" d="M32.01,32.93c-.63,0-1.25,0-1.88,0-.38,0-.56-.17-.56-.55,0-.51-.01-1.02,0-1.54,0-.39-.17-.55-.55-.54-.59,.02-1.18,.03-1.76,.03-.15,0-.34,.05-.42-.1-.11-.19,.08-.32,.17-.44,.97-1.25,2.09-2.35,3.22-3.44,.44-.42,.88-.83,1.31-1.26,.3-.3,.58-.33,.89-.03,1.58,1.55,3.24,3.03,4.61,4.79,.09,.12,.26,.23,.17,.39-.08,.15-.27,.11-.42,.11-.59,0-1.18,0-1.76-.04-.43-.02-.63,.13-.61,.58,.02,.47-.03,.95,0,1.42,.03,.49-.19,.64-.64,.63-.59-.02-1.18,0-1.76,0,0,0,0,0,0,0Z"/>
      </g>
    </g>
  </g>
</svg>