<?xml version="1.0" encoding="UTF-8"?>
<svg id="Camada_2" data-name="Camada 2" xmlns="http://www.w3.org/2000/svg" viewBox="0 0 97.73 84.37">
  <defs>
    <style>
      .cls-1 {
        fill: #ce5424;
      }
    </style>
  </defs>
  <g id="Camada_1-2" data-name="Camada 1">
    <g>
      <g>
        <path class="cls-1" d="M17.28,34.61c.64,0,1.33,.16,1.9-.03,2.87-.93,5.67-.06,8.43,.37,2.17,.33,4.25,1.31,6.37,2.01,.2,.06,.43,.14,.55,.29,1.85,2.25,3.64,4.56,5.55,6.75,1.32,1.51,1.86,3.07,1.48,5.11-.38,2.03-.42,4.12-.71,6.17-.06,.42-.51,1.06-.86,1.11-1.45,.23-1.77,1.27-2.09,2.43-.15,.54-.4,1.11-.77,1.54-1.44,1.69-2.87,3.41-4.46,4.96-.86,.83-2.03,1.33-3.06,1.99-.4,.25-.97,.45-1.13,.81-1,2.31-3.29,3.05-5.14,4.21-1.86,1.16-4,2.59-6.01,2.58-3.14-.02-5.83,1.49-8.81,1.63-.41,.02-1.12-.61-1.24-1.06-1.08-4.1-2.14-8.22-3.04-12.37-.28-1.27,.06-2.66-.09-3.97-.42-3.58-1.07-7.14-1.42-10.73-.45-4.5-.66-9.03-1.03-13.55-.34-4.06-.81-8.11-1.12-12.18-.08-1.05,.4-2.14,.37-3.21-.05-1.97-.3-3.94-.43-5.92-.25-3.66-1.01-7.34,.02-10.98,.17-.6,.91-1.03,1.39-1.54,.38,.45,.93,.84,1.1,1.35,.33,.98,.43,2.04,.63,3.06,.91-.46,1.78-1.03,2.73-1.36C10.4,2.68,14.35,.73,18.5,.14c6.19-.88,10.68,2.42,11.9,9.26,.65,3.65-.74,6.72-1.77,10.03-1.02,3.28-3.33,5.63-4.92,8.47-.52,.93-1.86,1.36-2.72,2.14-1.39,1.25-2.7,2.58-4.04,3.88,.11,.23,.22,.46,.33,.68Zm-6.87,38.32c5.97,.01,10.15-2.87,14.28-5.58,2.56-1.69,4.71-4.04,6.93-6.22,1.26-1.24,2.63-2.56,3.36-4.12,1.08-2.33,1.78-4.88,2.36-7.4,.62-2.68-1.12-6.59-3.52-7.89-1.88-1.02-3.92-1.78-5.95-2.47-7.27-2.46-14.41-2.11-21.33,1.3-.42,.21-.85,.97-.81,1.43,.41,4.65,.84,9.3,1.43,13.92,.68,5.31,1.51,10.6,2.36,15.88,.09,.56,.79,1.02,.88,1.13ZM5.29,38.45c2.24-1.46,4-2.83,5.24-4.85,.27-.45,.94-.73,1.48-.91,.78-.25,1.82-.08,2.4-.54,1.31-1.03,2.22-2.64,3.62-3.46,2.43-1.43,3.96-3.65,5.65-5.72,2.73-3.35,4.33-7.18,3.94-11.63-.17-1.94-.69-3.82-2.52-4.87-1.79-1.02-3.6-2.04-5.51-2.76-1.11-.42-2.5-.57-3.65-.31-1.53,.34-2.96,1.14-4.4,1.83-2.22,1.06-4.39,2.22-6.6,3.29-1.92,.93-1.84,2.59-1.71,4.34,.56,7.52,1.08,15.03,1.64,22.55,.07,.92,.26,1.82,.44,3.05Z"/>
        <path class="cls-1" d="M91.05,35.71c-1.5,3.49-2.81,6.66-4.23,9.78-.65,1.43-1.39,2.86-2.31,4.13-1.74,2.4-3.62,4.69-5.48,7.01-.79,.99-1.67,1.91-2.51,2.87-.21,.24-.36,.54-.6,.73-1.82,1.5-6.83,1.71-8.53,.11-1.75-1.65-3.63-3.38-4.7-5.47-.75-1.47-.45-3.62-.21-5.42,.31-2.42,.9-4.82,1.58-7.17,.52-1.79,1.36-3.48,2.1-5.2,.45-1.05,.85-2.15,1.49-3.08,1.09-1.61,2.35-3.1,3.54-4.64,.26-.33,.66-.63,.76-1,1.08-4.2,4.6-6.22,7.98-7.41,2.48-.88,5.44-2.6,8.42-.92,.85,.48,1.68,1.02,2.51,1.53l-.21,.61c-1.37,0-2.77,.2-4.09-.04-2.99-.55-5.22,1.19-7.54,2.45-.98,.53-1.44,2.04-2.11,3.13-1.97,3.19-4.07,6.32-5.86,9.62-1.72,3.19-3.31,6.5-4.55,9.9-.48,1.3,.08,3.03,.31,4.54,.26,1.68,.66,3.34,1.06,4.99,.28,1.17,.89,1.54,2.21,1.21,2.5-.63,4.24-2.06,6.17-3.78,3.15-2.83,5.16-6.41,7.5-9.74,1.67-2.37,2.45-5.38,3.54-8.15,.75-1.9,1.22-3.91,2.06-5.76,.32-.72,1.31-1.14,1.99-1.69,.46,.63,1.18,1.2,1.34,1.9,1.4,6.21,2.75,12.43,4,18.67,.36,1.78,.35,3.64,.5,5.46,.01,.16-.05,.33,0,.48,1.11,3.74,.14,7.57,.47,11.35,.04,.45-.16,.94-.32,1.38-.74,2.12-1.39,4.28-2.3,6.33-1.65,3.73-4.54,6.21-8.34,7.53-1.77,.62-3.67,.84-5.48,1.37-.59,.17-1.12,1.12-1.6,1.06-3.28-.42-6.35-1.43-8.56-4.13-.29-.35-.27-.95-.39-1.43,.58,.02,1.43-.19,1.7,.11,1.39,1.54,3.26,1.78,5.09,2.12,4.34,.82,8.34-.29,11.19-3.49,2.11-2.38,3.61-5.48,4.76-8.5,.86-2.27,.86-4.91,1.01-7.4,.15-2.43,.09-4.89-.01-7.33-.06-1.31-.38-2.61-.61-3.91-.75-4.3-1.51-8.6-2.28-12.9-.09-.51-.26-1.01-.47-1.81Z"/>
        <path class="cls-1" d="M48.77,72.61c-.12-1.55-.35-2.81-.29-4.05,.39-8.74-.57-17.41-1.4-26.09-.28-2.9-.53-5.81-.6-8.72-.01-.61,.83-1.23,1.27-1.85,.45,.53,1.22,1.01,1.29,1.58,.33,2.75,.46,5.52,.69,8.28,.05,.59,.26,1.18,.75,1.78,.54-1.56,1.05-3.13,1.64-4.67,1.15-3.01,2.16-6.11,3.6-8.98,.94-1.88,1.85-3.93,3.84-5.16,.81-.5,1.34-1.49,1.94-2.3,1.99-2.71,4.7-3.53,8.1-2.94-.38,.31-.73,.68-1.15,.93-3.78,2.29-7.26,4.91-9.2,9.08-.91,1.97-1.23,4.4-2.6,5.92-1.47,1.63-2.11,3.43-2.68,5.33-1.57,5.27-3.51,10.46-3.04,16.17,.34,4.14,.22,8.32,.39,12.48,.07,1.68-1.09,2.26-2.56,3.22Z"/>
      </g>
      <g>
        <path class="cls-1" d="M17.28,34.61c.64,0,1.33,.16,1.9-.03,2.87-.93,5.67-.06,8.43,.37,2.17,.33,4.25,1.31,6.37,2.01,.2,.06,.43,.14,.55,.29,1.85,2.25,3.64,4.56,5.55,6.75,1.32,1.51,1.86,3.07,1.48,5.11-.38,2.03-.42,4.12-.71,6.17-.06,.42-.51,1.06-.86,1.11-1.45,.23-1.77,1.27-2.09,2.43-.15,.54-.4,1.11-.77,1.54-1.44,1.69-2.87,3.41-4.46,4.96-.86,.83-2.03,1.33-3.06,1.99-.4,.25-.97,.45-1.13,.81-1,2.31-3.29,3.05-5.14,4.21-1.86,1.16-4,2.59-6.01,2.58-3.14-.02-5.83,1.49-8.81,1.63-.41,.02-1.12-.61-1.24-1.06-1.08-4.1-2.14-8.22-3.04-12.37-.28-1.27,.06-2.66-.09-3.97-.42-3.58-1.07-7.14-1.42-10.73-.45-4.5-.66-9.03-1.03-13.55-.34-4.06-.81-8.11-1.12-12.18-.08-1.05,.4-2.14,.37-3.21-.05-1.97-.3-3.94-.43-5.92-.25-3.66-1.01-7.34,.02-10.98,.17-.6,.91-1.03,1.39-1.54,.38,.45,.93,.84,1.1,1.35,.33,.98,.43,2.04,.63,3.06,.91-.46,1.78-1.03,2.73-1.36C10.4,2.68,14.35,.73,18.5,.14c6.19-.88,10.68,2.42,11.9,9.26,.65,3.65-.74,6.72-1.77,10.03-1.02,3.28-3.33,5.63-4.92,8.47-.52,.93-1.86,1.36-2.72,2.14-1.39,1.25-2.7,2.58-4.04,3.88,.11,.23,.22,.46,.33,.68Zm-6.87,38.32c5.97,.01,10.15-2.87,14.28-5.58,2.56-1.69,4.71-4.04,6.93-6.22,1.26-1.24,2.63-2.56,3.36-4.12,1.08-2.33,1.78-4.88,2.36-7.4,.62-2.68-1.12-6.59-3.52-7.89-1.88-1.02-3.92-1.78-5.95-2.47-7.27-2.46-14.41-2.11-21.33,1.3-.42,.21-.85,.97-.81,1.43,.41,4.65,.84,9.3,1.43,13.92,.68,5.31,1.51,10.6,2.36,15.88,.09,.56,.79,1.02,.88,1.13ZM5.29,38.45c2.24-1.46,4-2.83,5.24-4.85,.27-.45,.94-.73,1.48-.91,.78-.25,1.82-.08,2.4-.54,1.31-1.03,2.22-2.64,3.62-3.46,2.43-1.43,3.96-3.65,5.65-5.72,2.73-3.35,4.33-7.18,3.94-11.63-.17-1.94-.69-3.82-2.52-4.87-1.79-1.02-3.6-2.04-5.51-2.76-1.11-.42-2.5-.57-3.65-.31-1.53,.34-2.96,1.14-4.4,1.83-2.22,1.06-4.39,2.22-6.6,3.29-1.92,.93-1.84,2.59-1.71,4.34,.56,7.52,1.08,15.03,1.64,22.55,.07,.92,.26,1.82,.44,3.05Z"/>
        <path class="cls-1" d="M91.05,35.71c-1.5,3.49-2.81,6.66-4.23,9.78-.65,1.43-1.39,2.86-2.31,4.13-1.74,2.4-3.62,4.69-5.48,7.01-.79,.99-1.67,1.91-2.51,2.87-.21,.24-.36,.54-.6,.73-1.82,1.5-6.83,1.71-8.53,.11-1.75-1.65-3.63-3.38-4.7-5.47-.75-1.47-.45-3.62-.21-5.42,.31-2.42,.9-4.82,1.58-7.17,.52-1.79,1.36-3.48,2.1-5.2,.45-1.05,.85-2.15,1.49-3.08,1.09-1.61,2.35-3.1,3.54-4.64,.26-.33,.66-.63,.76-1,1.08-4.2,4.6-6.22,7.98-7.41,2.48-.88,5.44-2.6,8.42-.92,.85,.48,1.68,1.02,2.51,1.53l-.21,.61c-1.37,0-2.77,.2-4.09-.04-2.99-.55-5.22,1.19-7.54,2.45-.98,.53-1.44,2.04-2.11,3.13-1.97,3.19-4.07,6.32-5.86,9.62-1.72,3.19-3.31,6.5-4.55,9.9-.48,1.3,.08,3.03,.31,4.54,.26,1.68,.66,3.34,1.06,4.99,.28,1.17,.89,1.54,2.21,1.21,2.5-.63,4.24-2.06,6.17-3.78,3.15-2.83,5.16-6.41,7.5-9.74,1.67-2.37,2.45-5.38,3.54-8.15,.75-1.9,1.22-3.91,2.06-5.76,.32-.72,1.31-1.14,1.99-1.69,.46,.63,1.18,1.2,1.34,1.9,1.4,6.21,2.75,12.43,4,18.67,.36,1.78,.35,3.64,.5,5.46,.01,.16-.05,.33,0,.48,1.11,3.74,.14,7.57,.47,11.35,.04,.45-.16,.94-.32,1.38-.74,2.12-1.39,4.28-2.3,6.33-1.65,3.73-4.54,6.21-8.34,7.53-1.77,.62-3.67,.84-5.48,1.37-.59,.17-1.12,1.12-1.6,1.06-3.28-.42-6.35-1.43-8.56-4.13-.29-.35-.27-.95-.39-1.43,.58,.02,1.43-.19,1.7,.11,1.39,1.54,3.26,1.78,5.09,2.12,4.34,.82,8.34-.29,11.19-3.49,2.11-2.38,3.61-5.48,4.76-8.5,.86-2.27,.86-4.91,1.01-7.4,.15-2.43,.09-4.89-.01-7.33-.06-1.31-.38-2.61-.61-3.91-.75-4.3-1.51-8.6-2.28-12.9-.09-.51-.26-1.01-.47-1.81Z"/>
        <path class="cls-1" d="M48.77,72.61c-.12-1.55-.35-2.81-.29-4.05,.39-8.74-.57-17.41-1.4-26.09-.28-2.9-.53-5.81-.6-8.72-.01-.61,.83-1.23,1.27-1.85,.45,.53,1.22,1.01,1.29,1.58,.33,2.75,.46,5.52,.69,8.28,.05,.59,.26,1.18,.75,1.78,.54-1.56,1.05-3.13,1.64-4.67,1.15-3.01,2.16-6.11,3.6-8.98,.94-1.88,1.85-3.93,3.84-5.16,.81-.5,1.34-1.49,1.94-2.3,1.99-2.71,4.7-3.53,8.1-2.94-.38,.31-.73,.68-1.15,.93-3.78,2.29-7.26,4.91-9.2,9.08-.91,1.97-1.23,4.4-2.6,5.92-1.47,1.63-2.11,3.43-2.68,5.33-1.57,5.27-3.51,10.46-3.04,16.17,.34,4.14,.22,8.32,.39,12.48,.07,1.68-1.09,2.26-2.56,3.22Z"/>
      </g>
    </g>
  </g>
</svg>