<?xml version="1.0" encoding="UTF-8"?>
<svg id="Camada_2" data-name="Camada 2" xmlns="http://www.w3.org/2000/svg" viewBox="0 0 85.31 87.78">
  <defs>
    <style>
      .cls-1 {
        fill: #fff;
      }

      .cls-2 {
        fill: #1d1d1b;
      }

      .cls-3 {
        opacity: .2;
      }
    </style>
  </defs>
  <g id="Camada_1-2" data-name="Camada 1">
    <g>
      <g class="cls-3">
        <path class="cls-2" d="M68.51,37.88l-2.01,17.03h14.78v15.25h-16.67l-2.25,17.62h-16.08l2.25-17.62h-14.55l-2.25,17.62H15.65l2.25-17.62H3v-15.25H19.79l2.01-17.03H6.9v-15.25H23.69l2.25-17.62h16.08l-2.25,17.62h14.55l2.25-17.62h16.08l-2.25,17.62h14.9v15.25h-16.79Zm-16.08,0h-14.55l-2.01,17.03h14.54l2.01-17.03Z"/>
      </g>
      <path class="cls-1" d="M65.51,32.88l-2.01,17.03h14.78v15.25h-16.67l-2.25,17.62h-16.08l2.25-17.62h-14.55l-2.25,17.62H12.65l2.25-17.62H0v-15.25H16.79l2.01-17.03H3.9v-15.25H20.69L22.94,0h16.08l-2.25,17.62h14.55L53.57,0h16.08l-2.25,17.62h14.9v15.25h-16.79Zm-16.08,0h-14.55l-2.01,17.03h14.54l2.01-17.03Z"/>
    </g>
  </g>
</svg>