<?xml version="1.0" encoding="UTF-8"?>
<svg id="Camada_2" data-name="Camada 2" xmlns="http://www.w3.org/2000/svg" viewBox="0 0 85 85">
  <defs>
    <style>
      .cls-1 {
        fill: #fff;
      }
    </style>
  </defs>
  <g id="Camada_1-2" data-name="Camada 1">
    <g>
      <path class="cls-1" d="M84.66,82.33l-8.95-11.65c-.28-.36-.7-.6-1.15-.64-6.08-.6-9.32-1.89-11.92-2.93-2.31-.92-4.69-1.87-7.77-1.87-4.69,0-8.27,2.5-10.7,5.34v-.06c.42-.96,1.54-3.18,3.61-5.11,2.09-1.95,4.43-2.94,6.95-2.94s4.29,.75,6.46,1.61c1.82,.72,4.07,1.62,7.38,2.31,.9,.19,1.78-.39,1.97-1.28,.19-.9-.39-1.78-1.28-1.97-3.02-.64-5.05-1.44-6.84-2.15-2.28-.91-4.64-1.85-7.69-1.85-3.34,0-6.53,1.32-9.22,3.83-1.29,1.21-2.28,2.49-3.01,3.63-.73-1.14-1.71-2.43-3.01-3.63-2.69-2.5-5.87-3.83-9.22-3.83-3.05,0-5.41,.94-7.69,1.85-2.58,1.02-5.78,2.3-11.79,2.9-.91,.09-1.58,.9-1.49,1.82,.09,.91,.9,1.58,1.82,1.49,6.47-.64,10.07-2.07,12.69-3.12,2.17-.86,4.05-1.61,6.46-1.61s4.86,.99,6.95,2.94c2.08,1.94,3.19,4.16,3.61,5.11v.06c-2.43-2.83-6.01-5.34-10.7-5.34-3.08,0-5.46,.95-7.77,1.87-2.61,1.04-5.85,2.33-11.92,2.93-.46,.05-.87,.28-1.15,.64L.34,82.33c-.39,.5-.45,1.18-.17,1.75,.28,.57,.86,.93,1.49,.93h1.25c.33,0,.63,0,.95-.01,.04,0,.07,.01,.11,.01h31.55s0,0,0,0c0,0,0,0,0,0h13.93s0,0,0,0c0,0,0,0,0,0h31.55s.07,0,.11-.01c.32,0,.62,.01,.95,.01h1.25c.63,0,1.21-.36,1.49-.93,.28-.57,.21-1.24-.17-1.75Zm-29.8-13.76c2.44,0,4.34,.76,6.54,1.63,2.55,1.02,6.01,2.39,12.1,3.07l6.45,8.39c-11.09-.24-16.36-2.33-19.92-3.75-2.06-.82-3.42-1.36-5.18-1.36-3.07,0-5.17,2.3-6.04,4.28,0,.02-.02,.03-.02,.05l-.38,.81h-4.25v-4.96c1.36-3.16,5.01-8.16,10.7-8.16Zm-43.36,4.7c6.09-.68,9.55-2.06,12.11-3.07,2.2-.87,4.1-1.63,6.54-1.63,5.69,0,9.34,5,10.7,8.16v4.96h-4.25l-.38-.81-.02-.05c-.87-1.98-2.97-4.28-6.04-4.28-1.75,0-3.12,.54-5.18,1.36-3.55,1.41-8.82,3.51-19.92,3.75l6.45-8.39Zm14.69,7.73c1.83-.73,2.83-1.13,3.95-1.13,1.43,0,2.33,1.13,2.74,1.81h-8.46c.63-.24,1.22-.47,1.76-.69Zm25.92,.69c.41-.69,1.31-1.81,2.74-1.81,1.12,0,2.12,.4,3.95,1.13,.54,.22,1.13,.45,1.76,.69h-8.45Z"/>
      <path class="cls-1" d="M73.82,67.19h.06c.06,.01,.11,.01,.16,.01,.84,0,1.57-.64,1.65-1.5,.09-.91-.58-1.73-1.49-1.81h-.06c-.91-.1-1.73,.57-1.82,1.48-.09,.91,.58,1.73,1.49,1.82Z"/>
      <path class="cls-1" d="M36.9,40.85c-.43,.04-.83,.24-1.12,.57-.32,.37-.45,.85-.38,1.33,.69,4.49,3.08,7.55,6.57,8.6-.08,.63-.17,1.25-.23,1.88l-.88,8.43c-.1,.91,.57,1.73,1.48,1.82,.06,0,.12,0,.18,0,.84,0,1.56-.63,1.65-1.49l.88-8.43c.06-.61,.15-1.22,.23-1.84,7.71-.1,12.42-5.02,14.78-15.43,.26-1.15,.58-2.5,.95-4.01,.12-.48,.02-.98-.27-1.37-.11-.15-.24-.27-.38-.38l.65-.37c.39-.22,.68-.6,.79-1.04,2.9-11.54,7.15-26.89,7.19-27.04,.14-.52,.03-1.07-.31-1.49-.34-.42-.85-.65-1.39-.61-.15,0-3.63,.23-8.45,2.71-7.87,4.06-13.27,11-16.41,16.12-.14,.22-.27,.44-.4,.66-.2,.34-.28,.73-.22,1.12l.83,5.12h-2.82c-.67,0-1.27,.4-1.53,1.01-1.78,4.16-2.8,8.07-3.04,11.62-.03,.47,.14,.93,.47,1.27l1.19,1.21Zm21.83-13.19l-4.43,2.53c-.64,.36-.96,1.1-.79,1.81,.16,.71,.78,1.24,1.51,1.28l2.3,.15c-.18,.77-.35,1.49-.5,2.14-2.39,10.56-6.81,12.66-11.06,12.84,1.17-7.04,3.21-13.89,6.1-20.44,3.09-7,7.09-13.52,11.91-19.43-1.45,5.34-3.42,12.73-5.03,19.11Zm-17.81,1.4h3.66c.49,0,.95-.21,1.26-.58s.45-.86,.37-1.34l-1.05-6.44s.04-.07,.07-.11c5.23-8.52,11-12.75,14.92-14.81,.94-.49,1.82-.88,2.62-1.2-5.72,6.64-10.42,14.05-13.96,22.07-3.02,6.84-5.14,14.01-6.36,21.37-1.82-.74-2.79-2.33-3.31-3.84h1.7c.67,0,1.27-.4,1.53-1.02,.26-.62,.12-1.33-.34-1.81l-3.41-3.48c.27-2.7,1.04-5.65,2.3-8.8Z"/>
    </g>
  </g>
</svg>