<?xml version="1.0" encoding="UTF-8"?>
<svg id="Camada_2" data-name="Camada 2" xmlns="http://www.w3.org/2000/svg" viewBox="0 0 90 84.1">
  <defs>
    <style>
      .cls-1 {
        fill: #fff;
      }
    </style>
  </defs>
  <g id="Camada_1-2" data-name="Camada 1">
    <g>
      <path class="cls-1" d="M70.06,27.39c-.76-1.17-2.05-1.87-3.44-1.87H23.42c-1.39,0-2.68,.7-3.44,1.87l-9.82,15.12c-1,1.54-.85,3.58,.38,4.96l31.41,35.26c.78,.87,1.89,1.37,3.06,1.37h0c1.17,0,2.28-.5,3.06-1.37l31.41-35.26c1.22-1.37,1.38-3.41,.38-4.96l-9.79-15.12Zm-5.43,1.64l-8.23,12.73-8.24-12.73h16.47Zm-11.47,14.21h-16.34l8.17-12.62,8.17,12.62Zm-11.33-14.21l-8.22,12.7-8.21-12.7h16.43Zm-19.68,1.45l8.26,12.76H13.87l8.29-12.76Zm-7.55,16.28h17.69l9.35,30.36L14.61,46.76Zm30.39,29.27l-9.02-29.27h18.04l-9.02,29.27Zm3.34,1.09l9.35-30.36h17.69l-27.05,30.36Zm11.29-33.88l8.25-12.76,8.26,12.76h-16.51Z"/>
      <path class="cls-1" d="M5.33,43.24H1.76c-.97,0-1.76,.79-1.76,1.76s.79,1.76,1.76,1.76h3.57c.97,0,1.76-.79,1.76-1.76s-.79-1.76-1.76-1.76Z"/>
      <path class="cls-1" d="M88.24,43.24h-3.57c-.97,0-1.76,.79-1.76,1.76s.79,1.76,1.76,1.76h3.57c.97,0,1.76-.79,1.76-1.76s-.79-1.76-1.76-1.76Z"/>
      <path class="cls-1" d="M69.76,22.03c.45,0,.9-.17,1.24-.51l5.84-5.84c.69-.69,.69-1.8,0-2.49-.69-.69-1.8-.69-2.49,0l-5.84,5.84c-.69,.69-.69,1.8,0,2.49,.34,.34,.79,.51,1.24,.51Z"/>
      <path class="cls-1" d="M19.07,21.48c.34,.34,.79,.52,1.24,.52s.9-.17,1.24-.52c.69-.69,.69-1.8,0-2.49l-5.84-5.84c-.69-.69-1.8-.69-2.49,0-.69,.69-.69,1.8,0,2.49l5.84,5.84Z"/>
      <path class="cls-1" d="M45.04,14.97c.97,0,1.76-.79,1.76-1.76V1.76c0-.97-.79-1.76-1.76-1.76s-1.76,.79-1.76,1.76V13.21c0,.97,.79,1.76,1.76,1.76Z"/>
      <path class="cls-1" d="M45.04,20.92c.46,0,.92-.19,1.24-.52,.33-.33,.52-.78,.52-1.24s-.19-.92-.52-1.24c-.33-.33-.78-.52-1.24-.52s-.92,.19-1.24,.52c-.33,.33-.52,.78-.52,1.24s.19,.92,.52,1.24c.33,.33,.78,.52,1.24,.52Z"/>
    </g>
  </g>
</svg>