<?xml version="1.0" encoding="UTF-8"?>
<svg id="Camada_2" data-name="Camada 2" xmlns="http://www.w3.org/2000/svg" viewBox="0 0 90 59.44">
  <defs>
    <style>
      .cls-1 {
        fill: #fff;
      }
    </style>
  </defs>
  <g id="Camada_1-2" data-name="Camada 1">
    <path class="cls-1" d="M89.73,43.93c.03-.05,.06-.1,.08-.16,.02-.05,.04-.1,.06-.16,.02-.06,.04-.12,.05-.18,.01-.05,.02-.1,.03-.15,.01-.07,.02-.14,.02-.21,0-.03,0-.05,0-.08v-5.98c0-6.27-4.22-11.56-9.96-13.22,2.42-2.17,3.98-5.3,3.98-8.72,0-6.38-5.39-11.77-11.77-11.77s-11.77,5.39-11.77,11.77c0,3.42,1.56,6.55,3.98,8.72-2.63,.75-4.99,2.27-6.76,4.4-1.14-.52-2.33-.93-3.58-1.21,3.6-2.79,5.98-7.13,5.98-11.91,0-8.18-6.91-15.09-15.09-15.09s-15.09,6.91-15.09,15.09c0,4.79,2.38,9.12,5.98,11.91-1.25,.27-2.44,.69-3.58,1.21-1.77-2.13-4.13-3.65-6.76-4.4,2.42-2.17,3.98-5.3,3.98-8.72,0-6.38-5.39-11.77-11.77-11.77S5.98,8.71,5.98,15.09c0,3.42,1.56,6.54,3.98,8.72C4.22,25.47,0,30.76,0,37.02v5.98s0,.05,0,.08c0,.07,0,.14,.02,.21,0,.05,.02,.11,.03,.16,.01,.06,.03,.11,.05,.17,.02,.06,.04,.11,.07,.16,.02,.05,.05,.1,.08,.14,.03,.05,.06,.1,.1,.15,.03,.04,.07,.08,.1,.12,.04,.05,.09,.09,.13,.13,.04,.03,.08,.07,.12,.1,.06,.04,.11,.08,.17,.12,.02,.01,.04,.03,.07,.04,3.66,1.95,7.61,3.24,11.72,3.84,.09,.01,.17,.02,.26,.02,.88,0,1.65-.65,1.78-1.54,.14-.98-.54-1.9-1.53-2.04-3.35-.48-6.57-1.48-9.59-2.97v-4.87c0-5.6,4.56-10.16,10.16-10.16,0,0,.01,0,.02,0h7.96c2.85,0,5.5,1.19,7.4,3.23-4.36,3.24-7.21,8.41-7.21,14.25v7.98s0,.05,0,.08c0,.07,0,.14,.02,.21,0,.05,.02,.1,.03,.15,.02,.06,.03,.12,.05,.18,.02,.05,.04,.11,.06,.16,.02,.05,.05,.1,.08,.15,.03,.05,.06,.1,.09,.14,.03,.05,.07,.09,.11,.14,.04,.04,.08,.08,.12,.12,.04,.04,.09,.08,.14,.11,.05,.04,.1,.07,.15,.1,.03,.02,.05,.04,.08,.05,6.92,3.69,14.52,5.54,22.11,5.54s15.19-1.85,22.12-5.54c.03-.02,.06-.04,.09-.06,.05-.03,.09-.06,.13-.09,.05-.04,.1-.08,.15-.12,.04-.03,.07-.07,.1-.11,.05-.05,.09-.1,.13-.16,.03-.04,.05-.08,.08-.12,.04-.06,.07-.12,.1-.18,.02-.04,.04-.09,.05-.13,.03-.07,.05-.14,.06-.21,0-.04,.02-.08,.02-.12,.01-.08,.02-.16,.02-.24,0-.02,0-.04,0-.06v-7.98c0-5.84-2.85-11.01-7.21-14.25,1.9-2.04,4.55-3.23,7.4-3.23h7.96s.01,0,.02,0c5.6,0,10.16,4.56,10.16,10.16v4.87c-3.02,1.49-6.24,2.49-9.59,2.97-.98,.14-1.67,1.05-1.53,2.04,.13,.9,.9,1.54,1.78,1.54,.08,0,.17,0,.26-.02,4.11-.59,8.06-1.88,11.72-3.84,.03-.02,.05-.04,.08-.05,.05-.03,.1-.06,.15-.1,.05-.04,.1-.07,.14-.12,.04-.04,.08-.08,.12-.12,.04-.05,.08-.09,.12-.14,.03-.04,.06-.09,.09-.14ZM17.75,6.92c4.43,0,8.17,3.74,8.17,8.17s-3.74,8.17-8.17,8.17-8.17-3.74-8.17-8.17,3.74-8.17,8.17-8.17Zm15.76,8.17c0-6.23,5.26-11.49,11.49-11.49s11.49,5.26,11.49,11.49-5.26,11.49-11.49,11.49-11.49-5.26-11.49-11.49Zm30.96,29.24v6.86c-12.27,6.17-26.66,6.17-38.93,0v-6.86c0-7.8,6.35-14.15,14.15-14.15h10.63c7.8,0,14.15,6.35,14.15,14.15Zm7.78-37.41c4.43,0,8.17,3.74,8.17,8.17s-3.74,8.17-8.17,8.17-8.17-3.74-8.17-8.17,3.74-8.17,8.17-8.17Z"/>
  </g>
</svg>