<?xml version="1.0" encoding="UTF-8"?>
<svg id="Camada_1" data-name="Camada 1" xmlns="http://www.w3.org/2000/svg" viewBox="0 0 64 64">
  <defs>
    <style>
      .cls-1 {
        fill: #fff;
      }
    </style>
  </defs>
  <path class="cls-1" d="m32,16.45c-8.58,0-15.55,6.98-15.55,15.55s6.98,15.55,15.55,15.55,15.55-6.98,15.55-15.55-6.98-15.55-15.55-15.55h0Zm0,27.44c-6.56,0-11.89-5.33-11.89-11.89s5.33-11.89,11.89-11.89,11.89,5.33,11.89,11.89-5.33,11.89-11.89,11.89Z"/>
  <path class="cls-1" d="m46.7.76h-29.41C8.18.76.76,8.18.76,17.3v29.41c0,9.12,7.42,16.53,16.53,16.53h29.41c9.12,0,16.53-7.42,16.53-16.53v-29.41c0-9.12-7.42-16.53-16.53-16.53Zm12.87,45.94c0,7.1-5.77,12.87-12.87,12.87h-29.41c-7.1,0-12.87-5.77-12.87-12.87v-29.41c0-7.1,5.77-12.87,12.87-12.87h29.41c7.1,0,12.87,5.77,12.87,12.87v29.41Z"/>
  <path class="cls-1" d="m49.4,12.77c-.48,0-.95.2-1.29.54-.34.34-.54.81-.54,1.29s.2.95.54,1.29c.34.34.81.54,1.29.54s.95-.2,1.29-.54.54-.81.54-1.29-.2-.95-.54-1.29c-.34-.34-.81-.54-1.29-.54Z"/>
</svg>