<?xml version="1.0" encoding="UTF-8"?>
<svg id="Camada_1" data-name="Camada 1" xmlns="http://www.w3.org/2000/svg" xmlns:xlink="http://www.w3.org/1999/xlink" viewBox="0 0 649.63 901.21">
  <defs>
    <style>
      .cls-1 {
        fill: none;
      }

      .cls-2 {
        clip-path: url(#clippath);
      }

      .cls-3 {
        fill: #fff;
      }

      .cls-4 {
        fill: #1d1d1b;
      }

      .cls-5 {
        opacity: .2;
      }
    </style>
    <clipPath id="clippath">
      <polygon class="cls-1" points="715.91 0 0 0 0 901.21 680.28 917.67 715.91 0"/>
    </clipPath>
  </defs>
  <g class="cls-2">
    <g>
      <g class="cls-5">
        <g>
          <path class="cls-4" d="M114.59,219.4c3.66,0,7.61,.92,10.92-.16,16.45-5.37,32.55-.32,48.43,2.12,12.48,1.92,24.42,7.51,36.58,11.52,1.13,.37,2.46,.82,3.17,1.68,10.64,12.91,20.88,26.17,31.87,38.77,7.56,8.67,10.69,17.65,8.48,29.32-2.21,11.64-2.41,23.65-4.06,35.41-.34,2.41-2.96,6.07-4.95,6.38-8.32,1.3-10.17,7.29-12.03,13.95-.87,3.13-2.32,6.39-4.39,8.82-8.3,9.72-16.5,19.61-25.63,28.49-4.92,4.78-11.66,7.65-17.55,11.43-2.27,1.46-5.57,2.57-6.49,4.68-5.75,13.25-18.88,17.5-29.54,24.16-10.66,6.66-22.99,14.9-34.53,14.82-18.02-.13-33.47,8.57-50.62,9.34-2.37,.11-6.45-3.5-7.14-6.09-6.22-23.57-12.27-47.21-17.45-71.03-1.58-7.29,.37-15.28-.51-22.81-2.43-20.58-6.12-41.01-8.16-61.62-2.56-25.87-3.78-51.87-5.94-77.79-1.95-23.33-4.67-46.59-6.42-69.93-.45-6.06,2.27-12.32,2.12-18.45-.28-11.34-1.71-22.65-2.48-33.98-1.42-21.03-5.79-42.15,.12-63.05,.97-3.43,5.24-5.9,7.99-8.82,2.18,2.56,5.34,4.8,6.32,7.76,1.87,5.64,2.49,11.7,3.63,17.58,5.21-2.64,10.2-5.9,15.66-7.81,23.09-8.04,45.82-19.26,69.62-22.63,35.55-5.04,61.32,13.89,68.33,53.17,3.75,20.99-4.28,38.59-10.16,57.62-5.83,18.86-19.11,32.31-28.23,48.63-2.98,5.34-10.67,7.83-15.63,12.28-7.98,7.15-15.49,14.84-23.19,22.31,.62,1.31,1.25,2.62,1.87,3.93Zm-39.44,220.06c34.27,.08,58.27-16.47,81.99-32.07,14.72-9.68,27.05-23.21,39.8-35.69,7.26-7.11,15.13-14.67,19.28-23.65,6.19-13.39,10.19-28.01,13.55-42.48,3.58-15.39-6.43-37.84-20.21-45.3-10.79-5.84-22.49-10.22-34.14-14.16-41.74-14.14-82.75-12.13-122.48,7.44-2.39,1.18-4.87,5.58-4.63,8.24,2.37,26.69,4.8,53.39,8.21,79.96,3.91,30.49,8.66,60.88,13.57,91.22,.52,3.22,4.55,5.87,5.06,6.49Zm-29.43-197.99c12.86-8.37,22.98-16.27,30.1-27.87,1.58-2.57,5.4-4.21,8.52-5.22,4.5-1.45,10.44-.47,13.76-3.09,7.5-5.92,12.77-15.17,20.78-19.88,13.98-8.21,22.73-20.95,32.43-32.85,15.69-19.25,24.88-41.25,22.61-66.8-.99-11.17-3.94-21.93-14.5-27.94-10.27-5.84-20.69-11.69-31.67-15.87-6.38-2.43-14.36-3.25-20.97-1.79-8.76,1.94-17.02,6.55-25.26,10.5-12.74,6.1-25.22,12.73-37.93,18.89-11.01,5.34-10.57,14.87-9.82,24.91,3.21,43.16,6.21,86.33,9.4,129.49,.39,5.26,1.5,10.47,2.54,17.51Z"/>
          <path class="cls-4" d="M716.5,477.69c.26,2.85,.52,5.71,.78,8.56-.69-.55-1.38-1.11-2.07-1.66-2.7,2.92-5.3,5.94-8.14,8.72-1.48,1.45-3.35,2.51-5.1,3.67-1.3,.86-3.03,1.29-3.98,2.42-9.16,10.8-17.8,22.08-27.42,32.44-5.45,5.87-14.31,9.1-18.34,15.6-9.26,14.92-26.29,19.8-37.21,32.14-4.62,5.23-8.5,11.19-13.5,15.98-7.62,7.29-18.44,12.39-23.4,21.05-9.22,16.07-25.32,24.05-36.94,37.03-6.64,7.42-14.66,13.52-16.2,24.36-.19,1.35-2.28,2.99-3.81,3.49-19.02,6.23-28.99,23.36-42.41,36.14-14.51,13.81-27.27,29.47-41.62,43.46-8.19,7.99-20,12.72-26.77,21.58-17.33,22.69-41.26,37.49-61.62,56.45-6.08,5.66-10,12.78-19.81,14.26-13.45,2.03-23.21-.24-31.28-11.07-1.2-1.62-2.44-3.9-2.28-5.75,1.62-17.8,3.37-35.59,5.44-53.34,.84-7.2,1.66-14.62,4.05-21.38,6.83-19.36,14.24-38.52,21.82-57.6,5.06-12.74,10.23-25.49,16.35-37.72,10.46-20.9,20.59-41.82,36.46-59.72,12.58-14.19,23.31-30.4,32.79-46.92,6.22-10.85,14.94-13.4,25.02-12.77,11.26,.7,23.09,3.69,29.14,14.25,2.41,4.21-.59,11.57-1.12,17.5-4.75-.9-9.64-1.38-14.22-2.84-4.03-1.29-9.71-6.3-11.2-5.14-5.48,4.26-9.72,10.24-14.04,15.88-4.3,5.6-8.01,11.64-12.23,17.31-1.6,2.15-4.46,3.44-5.77,5.7-9.83,17.08-20.22,33.89-28.89,51.56-14.72,30-29.41,60.1-41.96,91.05-8.44,20.8-13.35,43.08-19.33,64.85-.59,2.15,2.25,7.49,3.72,7.57,5.35,.32,12.62,1.05,15.91-1.98,18.71-17.22,36.5-35.47,54.58-53.39,14.03-13.91,28.44-27.45,41.9-41.89,13-13.94,24.27-29.57,37.66-43.08,12.4-12.52,26.57-23.27,40.04-34.7,7.15-6.06,14.85-11.51,21.63-17.96,8.96-8.53,16.84-18.24,25.94-26.59,15.79-14.49,32.27-28.2,48.24-42.5,7.41-6.63,13.52-14.98,21.58-20.56,10.47-7.25,22.3-12.52,35.57-19.75,1.96-8.23,13.35-16.24,24.76-20.13,6.59-2.25,12.45-10.12,16-16.88,2.93-5.59,5.47-8.25,11.43-7.53,0,0-.14-.15-.14-.15Z"/>
          <path class="cls-4" d="M205.83,605.79c-8.63,20.05-16.16,38.25-24.3,56.16-3.74,8.23-7.97,16.42-13.25,23.7-10,13.78-20.82,26.96-31.48,40.24-4.56,5.68-9.6,10.97-14.4,16.47-1.2,1.37-2.09,3.08-3.46,4.22-10.43,8.64-39.19,9.84-48.97,.65-10.07-9.46-20.86-19.42-26.97-31.42-4.29-8.43-2.56-20.82-1.22-31.13,1.8-13.89,5.15-27.69,9.09-41.15,3-10.26,7.83-19.99,12.07-29.86,2.58-6.02,4.9-12.33,8.54-17.67,6.29-9.23,13.51-17.81,20.35-26.66,1.48-1.92,3.8-3.61,4.35-5.76,6.18-24.11,26.42-35.72,45.82-42.57,14.25-5.04,31.25-14.96,48.38-5.3,4.9,2.76,9.63,5.84,14.44,8.77-.41,1.18-.81,2.35-1.22,3.53-7.84,0-15.9,1.16-23.49-.23-17.15-3.15-29.99,6.84-43.29,14.05-5.61,3.04-8.27,11.74-12.11,17.97-11.33,18.34-23.39,36.28-33.63,55.22-9.9,18.34-19,37.31-26.15,56.86-2.74,7.48,.44,17.42,1.8,26.1,1.5,9.64,3.81,19.18,6.12,28.67,1.63,6.72,5.14,8.83,12.69,6.93,14.34-3.62,24.37-11.81,35.41-21.73,18.08-16.26,29.6-36.82,43.05-55.91,9.58-13.61,14.09-30.92,20.34-46.79,4.29-10.89,7.02-22.45,11.82-33.08,1.86-4.13,7.5-6.53,11.42-9.71,2.64,3.62,6.77,6.9,7.68,10.92,8.03,35.65,15.77,71.37,22.94,107.2,2.05,10.23,2,20.9,2.89,31.37,.08,.91-.29,1.91-.04,2.74,6.38,21.49,.83,43.49,2.71,65.18,.22,2.57-.94,5.37-1.84,7.93-4.28,12.17-7.98,24.6-13.2,36.35-9.49,21.39-26.08,35.69-47.87,43.27-10.17,3.54-21.09,4.85-31.47,7.88-3.41,.99-6.45,6.41-9.19,6.06-18.85-2.39-36.48-8.2-49.15-23.71-1.64-2-1.55-5.44-2.26-8.22,3.34,.14,8.19-1.11,9.77,.65,8,8.86,18.7,10.2,29.23,12.19,24.91,4.71,47.9-1.66,64.25-20.04,12.14-13.64,20.74-31.47,27.35-48.81,4.96-13.02,4.93-28.19,5.83-42.48,.88-13.98,.52-28.07-.07-42.09-.32-7.52-2.2-14.97-3.5-22.43-4.32-24.7-8.67-49.4-13.09-74.08-.52-2.93-1.48-5.77-2.7-10.41Z"/>
          <path class="cls-4" d="M626.89,167.57c4.02,24.44,8.28,48.33,11.65,72.33,.79,5.62-2.91,11.95-1.92,17.48,3.44,19.23,8.52,38.17,12.06,57.39,3.92,21.24,6.86,42.67,10.15,64.03,.8,5.22,2.53,10.73,1.56,15.66-.77,3.92-5.01,7.14-7.7,10.67-2.48-3.12-6.24-5.87-7.22-9.41-5.32-19.18-10.85-38.38-14.61-57.91-5.09-26.41-8.64-53.12-13.4-83.19-4.18,9-7.57,15.11-9.94,21.6-11.51,31.54-21.92,63.52-34.44,94.63-5.79,14.37-9.68,29.87-21.98,41.56-17.34,16.47-37.73,21.69-59.07,15.4-10.19-3-21.85-11.43-23.66-25.71-.2-1.6-1.08-3.59-2.3-4.5-10.75-8.01-12.1-20.37-14.23-32.03-2.52-13.81-4.08-27.81-5.62-41.78-2.14-19.42,2.86-37.92,8.92-55.95,4.9-14.6,14.74-28.2,16.58-42.97,2.08-16.65,13.18-27.48,18.97-41.46,3.47-8.38,12.67-14.2,18.51-21.78,3.06-3.98,4.24-9.38,6.67-13.92,1.43-2.68,3.15-5.8,5.6-7.24,13.88-8.16,27.7-16.57,42.19-23.49,10.94-5.23,22.83-8.46,34.92-2.09,1.52,.8,3.51,.97,5.29,.98,14.8,.05,18.96,2.93,20.71,16.78,.28,2.2-5.07,7.44-7.56,7.28-10.33-.67-20.58-2.79-30.83-4.56-2.59-.45-5.03-2.2-7.59-2.3-17.21-.71-41.32,15.43-49.72,30.39-6.18,11-16.4,19.7-22.59,30.7-7.91,14.07-14.96,28.97-19.87,44.33-6.57,20.55-11.49,41.74-15.65,62.95-2.97,15.18-6.03,31.1-4.44,46.2,1.49,14.11,10.07,27.32,13.63,41.41,3.07,12.15,10.2,19.07,21.03,22.84,15.64,5.46,36.14-3.95,43.52-18.78,7.58-15.21,16.45-29.78,23.54-45.2,3.85-8.37,4.96-17.99,7.68-26.93,4.41-14.49,9.48-28.79,13.59-43.37,3.27-11.6,6.59-23.36,7.96-35.27,1.76-15.3,.84-30.79,11.54-43.91,2.91-3.56,2.53-9.86,3.63-14.92,1.5-6.95,2.75-14.08,14.44-15.95Z"/>
          <path class="cls-4" d="M304.33,437.66c-.69-8.93-2-16.12-1.68-23.25,2.24-50.22-3.29-99.98-8.03-149.8-1.58-16.67-3.05-33.38-3.46-50.1-.08-3.48,4.75-7.09,7.31-10.63,2.57,3.02,7,5.8,7.4,9.09,1.9,15.77,2.62,31.68,3.97,47.53,.29,3.41,1.48,6.75,4.29,10.2,3.13-8.95,6.04-17.98,9.43-26.83,6.62-17.31,12.41-35.09,20.68-51.58,5.42-10.82,10.6-22.59,22.06-29.65,4.65-2.87,7.72-8.53,11.14-13.19,11.41-15.56,27.02-20.27,46.51-16.86-2.19,1.79-4.21,3.88-6.6,5.33-21.72,13.16-41.71,28.18-52.81,52.13-5.24,11.3-7.09,25.27-14.91,33.98-8.43,9.39-12.12,19.7-15.37,30.61-9.01,30.28-20.15,60.05-17.46,92.85,1.95,23.78,1.28,47.77,2.21,71.65,.38,9.65-6.28,12.97-14.69,18.52Z"/>
          <path class="cls-4" d="M475.6,486.33c4.13,.53,8.52,.33,12.34,1.73,8.2,3,10.04,8.88,5.22,16.17-3.31,5-7.14,9.73-11.22,14.13-5.95,6.43-13.53,5.61-18.26-.15-5.04-6.15-8.54-14.16-10.41-21.92-.43-1.78,8.31-6.35,13.27-8.69,2.48-1.17,5.94-.2,8.96-.2,.03-.36,.06-.72,.09-1.07Z"/>
        </g>
      </g>
      <g>
        <path class="cls-3" d="M109.59,209.4c3.66,0,7.61,.92,10.92-.16,16.45-5.37,32.55-.32,48.43,2.12,12.48,1.92,24.42,7.51,36.58,11.52,1.13,.37,2.46,.82,3.17,1.68,10.64,12.91,20.88,26.17,31.87,38.77,7.56,8.67,10.69,17.65,8.48,29.32-2.21,11.64-2.41,23.65-4.06,35.41-.34,2.41-2.96,6.07-4.95,6.38-8.32,1.3-10.17,7.29-12.03,13.95-.87,3.13-2.32,6.39-4.39,8.82-8.3,9.72-16.5,19.61-25.63,28.49-4.92,4.78-11.66,7.65-17.55,11.43-2.27,1.46-5.57,2.57-6.49,4.68-5.75,13.25-18.88,17.5-29.54,24.16-10.66,6.66-22.99,14.9-34.53,14.82-18.02-.13-33.47,8.57-50.62,9.34-2.37,.11-6.45-3.5-7.14-6.09-6.22-23.57-12.27-47.21-17.45-71.03-1.58-7.29,.37-15.28-.51-22.81-2.43-20.58-6.12-41.01-8.16-61.62-2.56-25.87-3.78-51.87-5.94-77.79-1.95-23.33-4.67-46.59-6.42-69.93-.45-6.06,2.27-12.32,2.12-18.45-.28-11.34-1.71-22.65-2.48-33.98-1.42-21.03-5.79-42.15,.12-63.05,.97-3.43,5.24-5.9,7.99-8.82,2.18,2.56,5.34,4.8,6.32,7.76,1.87,5.64,2.49,11.7,3.63,17.58,5.21-2.64,10.2-5.9,15.66-7.81,23.09-8.04,45.82-19.26,69.62-22.63,35.55-5.04,61.32,13.89,68.33,53.17,3.75,20.99-4.28,38.59-10.16,57.62-5.83,18.86-19.11,32.31-28.23,48.63-2.98,5.34-10.67,7.83-15.63,12.28-7.98,7.15-15.49,14.84-23.19,22.31,.62,1.31,1.25,2.62,1.87,3.93Zm-39.44,220.06c34.27,.08,58.27-16.47,81.99-32.07,14.72-9.68,27.05-23.21,39.8-35.69,7.26-7.11,15.13-14.67,19.28-23.65,6.19-13.39,10.19-28.01,13.55-42.48,3.58-15.39-6.43-37.84-20.21-45.3-10.79-5.84-22.49-10.22-34.14-14.16-41.74-14.14-82.75-12.13-122.48,7.44-2.39,1.18-4.87,5.58-4.63,8.24,2.37,26.69,4.8,53.39,8.21,79.96,3.91,30.49,8.66,60.88,13.57,91.22,.52,3.22,4.55,5.87,5.06,6.49Zm-29.43-197.99c12.86-8.37,22.98-16.27,30.1-27.87,1.58-2.57,5.4-4.21,8.52-5.22,4.5-1.45,10.44-.47,13.76-3.09,7.5-5.92,12.77-15.17,20.78-19.88,13.98-8.21,22.73-20.95,32.43-32.85,15.69-19.25,24.88-41.25,22.61-66.8-.99-11.17-3.94-21.93-14.5-27.94-10.27-5.84-20.69-11.69-31.67-15.87-6.38-2.43-14.36-3.25-20.97-1.79-8.76,1.94-17.02,6.55-25.26,10.5-12.74,6.1-25.22,12.73-37.93,18.89-11.01,5.34-10.57,14.87-9.82,24.91,3.21,43.16,6.21,86.33,9.4,129.49,.39,5.26,1.5,10.47,2.54,17.51Z"/>
        <path class="cls-3" d="M711.5,467.69c.26,2.85,.52,5.71,.78,8.56-.69-.55-1.38-1.11-2.07-1.66-2.7,2.92-5.3,5.94-8.14,8.72-1.48,1.45-3.35,2.51-5.1,3.67-1.3,.86-3.03,1.29-3.98,2.42-9.16,10.8-17.8,22.08-27.42,32.44-5.45,5.87-14.31,9.1-18.34,15.6-9.26,14.92-26.29,19.8-37.21,32.14-4.62,5.23-8.5,11.19-13.5,15.98-7.62,7.29-18.44,12.39-23.4,21.05-9.22,16.07-25.32,24.05-36.94,37.03-6.64,7.42-14.66,13.52-16.2,24.36-.19,1.35-2.28,2.99-3.81,3.49-19.02,6.23-28.99,23.36-42.41,36.14-14.51,13.81-27.27,29.47-41.62,43.46-8.19,7.99-20,12.72-26.77,21.58-17.33,22.69-41.26,37.49-61.62,56.45-6.08,5.66-10,12.78-19.81,14.26-13.45,2.03-23.21-.24-31.28-11.07-1.2-1.62-2.44-3.9-2.28-5.75,1.62-17.8,3.37-35.59,5.44-53.34,.84-7.2,1.66-14.62,4.05-21.38,6.83-19.36,14.24-38.52,21.82-57.6,5.06-12.74,10.23-25.49,16.35-37.72,10.46-20.9,20.59-41.82,36.46-59.72,12.58-14.19,23.31-30.4,32.79-46.92,6.22-10.85,14.94-13.4,25.02-12.77,11.26,.7,23.09,3.69,29.14,14.25,2.41,4.21-.59,11.57-1.12,17.5-4.75-.9-9.64-1.38-14.22-2.84-4.03-1.29-9.71-6.3-11.2-5.14-5.48,4.26-9.72,10.24-14.04,15.88-4.3,5.6-8.01,11.64-12.23,17.31-1.6,2.15-4.46,3.44-5.77,5.7-9.83,17.08-20.22,33.89-28.89,51.56-14.72,30-29.41,60.1-41.96,91.05-8.44,20.8-13.35,43.08-19.33,64.85-.59,2.15,2.25,7.49,3.72,7.57,5.35,.32,12.62,1.05,15.91-1.98,18.71-17.22,36.5-35.47,54.58-53.39,14.03-13.91,28.44-27.45,41.9-41.89,13-13.94,24.27-29.57,37.66-43.08,12.4-12.52,26.57-23.27,40.04-34.7,7.15-6.06,14.85-11.51,21.63-17.96,8.96-8.53,16.84-18.24,25.94-26.59,15.79-14.49,32.27-28.2,48.24-42.5,7.41-6.63,13.52-14.98,21.58-20.56,10.47-7.25,22.3-12.52,35.57-19.75,1.96-8.23,13.35-16.24,24.76-20.13,6.59-2.25,12.45-10.12,16-16.88,2.93-5.59,5.47-8.25,11.43-7.53,0,0-.14-.15-.14-.15Z"/>
        <path class="cls-3" d="M200.83,595.79c-8.63,20.05-16.16,38.25-24.3,56.16-3.74,8.23-7.97,16.42-13.25,23.7-10,13.78-20.82,26.96-31.48,40.24-4.56,5.68-9.6,10.97-14.4,16.47-1.2,1.37-2.09,3.08-3.46,4.22-10.43,8.64-39.19,9.84-48.97,.65-10.07-9.46-20.86-19.42-26.97-31.42-4.29-8.43-2.56-20.82-1.22-31.13,1.8-13.89,5.15-27.69,9.09-41.15,3-10.26,7.83-19.99,12.07-29.86,2.58-6.02,4.9-12.33,8.54-17.67,6.29-9.23,13.51-17.81,20.35-26.66,1.48-1.92,3.8-3.61,4.35-5.76,6.18-24.11,26.42-35.72,45.82-42.57,14.25-5.04,31.25-14.96,48.38-5.3,4.9,2.76,9.63,5.84,14.44,8.77-.41,1.18-.81,2.35-1.22,3.53-7.84,0-15.9,1.16-23.49-.23-17.15-3.15-29.99,6.84-43.29,14.05-5.61,3.04-8.27,11.74-12.11,17.97-11.33,18.34-23.39,36.28-33.63,55.22-9.9,18.34-19,37.31-26.15,56.86-2.74,7.48,.44,17.42,1.8,26.1,1.5,9.64,3.81,19.18,6.12,28.67,1.63,6.72,5.14,8.83,12.69,6.93,14.34-3.62,24.37-11.81,35.41-21.73,18.08-16.26,29.6-36.82,43.05-55.91,9.58-13.61,14.09-30.92,20.34-46.79,4.29-10.89,7.02-22.45,11.82-33.08,1.86-4.13,7.5-6.53,11.42-9.71,2.64,3.62,6.77,6.9,7.68,10.92,8.03,35.65,15.77,71.37,22.94,107.2,2.05,10.23,2,20.9,2.89,31.37,.08,.91-.29,1.91-.04,2.74,6.38,21.49,.83,43.49,2.71,65.18,.22,2.57-.94,5.37-1.84,7.93-4.28,12.17-7.98,24.6-13.2,36.35-9.49,21.39-26.08,35.69-47.87,43.27-10.17,3.54-21.09,4.85-31.47,7.88-3.41,.99-6.45,6.41-9.19,6.06-18.85-2.39-36.48-8.2-49.15-23.71-1.64-2-1.55-5.44-2.26-8.22,3.34,.14,8.19-1.11,9.77,.65,8,8.86,18.7,10.2,29.23,12.19,24.91,4.71,47.9-1.66,64.25-20.04,12.14-13.64,20.74-31.47,27.35-48.81,4.96-13.02,4.93-28.19,5.83-42.48,.88-13.98,.52-28.07-.07-42.09-.32-7.52-2.2-14.97-3.5-22.43-4.32-24.7-8.67-49.4-13.09-74.08-.52-2.93-1.48-5.77-2.7-10.41Z"/>
        <path class="cls-3" d="M621.89,157.57c4.02,24.44,8.28,48.33,11.65,72.33,.79,5.62-2.91,11.95-1.92,17.48,3.44,19.23,8.52,38.17,12.06,57.39,3.92,21.24,6.86,42.67,10.15,64.03,.8,5.22,2.53,10.73,1.56,15.66-.77,3.92-5.01,7.14-7.7,10.67-2.48-3.12-6.24-5.87-7.22-9.41-5.32-19.18-10.85-38.38-14.61-57.91-5.09-26.41-8.64-53.12-13.4-83.19-4.18,9-7.57,15.11-9.94,21.6-11.51,31.54-21.92,63.52-34.44,94.63-5.79,14.37-9.68,29.87-21.98,41.56-17.34,16.47-37.73,21.69-59.07,15.4-10.19-3-21.85-11.43-23.66-25.71-.2-1.6-1.08-3.59-2.3-4.5-10.75-8.01-12.1-20.37-14.23-32.03-2.52-13.81-4.08-27.81-5.62-41.78-2.14-19.42,2.86-37.92,8.92-55.95,4.9-14.6,14.74-28.2,16.58-42.97,2.08-16.65,13.18-27.48,18.97-41.46,3.47-8.38,12.67-14.2,18.51-21.78,3.06-3.98,4.24-9.38,6.67-13.92,1.43-2.68,3.15-5.8,5.6-7.24,13.88-8.16,27.7-16.57,42.19-23.49,10.94-5.23,22.83-8.46,34.92-2.09,1.52,.8,3.51,.97,5.29,.98,14.8,.05,18.96,2.93,20.71,16.78,.28,2.2-5.07,7.44-7.56,7.28-10.33-.67-20.58-2.79-30.83-4.56-2.59-.45-5.03-2.2-7.59-2.3-17.21-.71-41.32,15.43-49.72,30.39-6.18,11-16.4,19.7-22.59,30.7-7.91,14.07-14.96,28.97-19.87,44.33-6.57,20.55-11.49,41.74-15.65,62.95-2.97,15.18-6.03,31.1-4.44,46.2,1.49,14.11,10.07,27.32,13.63,41.41,3.07,12.15,10.2,19.07,21.03,22.84,15.64,5.46,36.14-3.95,43.52-18.78,7.58-15.21,16.45-29.78,23.54-45.2,3.85-8.37,4.96-17.99,7.68-26.93,4.41-14.49,9.48-28.79,13.59-43.37,3.27-11.6,6.59-23.36,7.96-35.27,1.76-15.3,.84-30.79,11.54-43.91,2.91-3.56,2.53-9.86,3.63-14.92,1.5-6.95,2.75-14.08,14.44-15.95Z"/>
        <path class="cls-3" d="M299.33,427.66c-.69-8.93-2-16.12-1.68-23.25,2.24-50.22-3.29-99.98-8.03-149.8-1.58-16.67-3.05-33.38-3.46-50.1-.08-3.48,4.75-7.09,7.31-10.63,2.57,3.02,7,5.8,7.4,9.09,1.9,15.77,2.62,31.68,3.97,47.53,.29,3.41,1.48,6.75,4.29,10.2,3.13-8.95,6.04-17.98,9.43-26.83,6.62-17.31,12.41-35.09,20.68-51.58,5.42-10.82,10.6-22.59,22.06-29.65,4.65-2.87,7.72-8.53,11.14-13.19,11.41-15.56,27.02-20.27,46.51-16.86-2.19,1.79-4.21,3.88-6.6,5.33-21.72,13.16-41.71,28.18-52.81,52.13-5.24,11.3-7.09,25.27-14.91,33.98-8.43,9.39-12.12,19.7-15.37,30.61-9.01,30.28-20.15,60.05-17.46,92.85,1.95,23.78,1.28,47.77,2.21,71.65,.38,9.65-6.28,12.97-14.69,18.52Z"/>
        <path class="cls-3" d="M470.6,476.33c4.13,.53,8.52,.33,12.34,1.73,8.2,3,10.04,8.88,5.22,16.17-3.31,5-7.14,9.73-11.22,14.13-5.95,6.43-13.53,5.61-18.26-.15-5.04-6.15-8.54-14.16-10.41-21.92-.43-1.78,8.31-6.35,13.27-8.69,2.48-1.17,5.94-.2,8.96-.2,.03-.36,.06-.72,.09-1.07Z"/>
      </g>
    </g>
  </g>
</svg>