<?xml version="1.0" encoding="UTF-8"?>
<svg id="Camada_1" data-name="Camada 1" xmlns="http://www.w3.org/2000/svg" viewBox="0 0 64 64">
  <defs>
    <style>
      .cls-1 {
        fill: #fff;
      }
    </style>
  </defs>
  <path class="cls-1" d="m57.48,14.49c-6.56,0-11.89-5.33-11.89-11.89,0-1.01-.82-1.83-1.83-1.83h-9.8c-1.01,0-1.83.82-1.83,1.83v40.19c0,3.86-3.14,6.99-6.99,6.99s-6.99-3.14-6.99-6.99,3.14-6.99,6.99-6.99c1.01,0,1.83-.82,1.83-1.83v-9.8c0-1.01-.82-1.83-1.83-1.83-11.28,0-20.45,9.18-20.45,20.45,0,11.28,9.18,20.45,20.45,20.45s20.45-9.18,20.45-20.45v-17.79c3.64,1.94,7.7,2.96,11.89,2.96,1.01,0,1.83-.82,1.83-1.83v-9.8c0-1.01-.82-1.83-1.83-1.83h0Zm-1.83,9.73c-3.91-.32-7.62-1.69-10.82-4-.56-.4-1.29-.46-1.9-.14-.61.31-1,.94-1,1.63v21.08c0,9.26-7.53,16.79-16.79,16.79s-16.79-7.53-16.79-16.79c0-8.64,6.56-15.78,14.96-16.69v6.2c-5,.87-8.82,5.24-8.82,10.49,0,5.87,4.78,10.65,10.65,10.65s10.65-4.78,10.65-10.65V4.43h6.25c.84,7.12,6.5,12.78,13.62,13.62v6.17h0Z"/>
</svg>