<?xml version="1.0" encoding="UTF-8"?>
<svg id="Camada_1" data-name="Camada 1" xmlns="http://www.w3.org/2000/svg" viewBox="0 0 64 64">
  <defs>
    <style>
      .cls-1 {
        fill: #fff;
      }
    </style>
  </defs>
  <path class="cls-1" d="m63.36,13.47c-.57-.65-1.51-.82-2.27-.4-.07.04-.13.07-.2.11.65-1.06,1.16-2.22,1.5-3.45.2-.71-.05-1.47-.63-1.93-.58-.46-1.38-.52-2.02-.17-1.98,1.1-4.08,1.96-6.25,2.58-2.56-2.33-5.93-3.64-9.41-3.64-7.71,0-13.99,6.27-13.99,13.99,0,.27,0,.54.02.81-8.65-.6-16.5-4.85-21.78-11.87-.32-.43-.82-.71-1.36-.75-.66-.04-1.29.28-1.65.83-1.44,2.22-2.2,4.79-2.2,7.44,0,2.44.65,4.78,1.83,6.82-.22,0-.45.04-.67.13-.68.27-1.13.92-1.15,1.65,0,.12,0,.25,0,.37,0,4.32,2.01,8.22,5.2,10.75-.2.4-.25.87-.12,1.31.79,2.81,2.5,5.33,4.82,7.12.94.73,1.95,1.32,3.02,1.77-3.73,1.62-7.77,2.46-11.9,2.46-.31,0-.63,0-.93-.01-.83-.02-1.57.51-1.81,1.3-.24.79.08,1.64.78,2.08,5.74,3.6,12.38,5.5,19.19,5.5,9.66,0,18.74-3.76,25.56-10.59,6.83-6.83,10.59-15.91,10.59-25.56,0-.09,0-.18,0-.27,2.22-1.77,4.2-3.82,5.91-6.1.52-.69.48-1.65-.08-2.3h0Zm-8.78,6.06c-.49.37-.75.96-.73,1.55.01.35.02.71.02,1.06,0,17.92-14.58,32.49-32.49,32.49-3.92,0-7.77-.7-11.39-2.06,4.38-.77,8.57-2.4,12.34-4.84.68-.44.99-1.27.76-2.05-.23-.78-.94-1.31-1.75-1.32-3.48-.01-6.65-1.85-8.45-4.69.71-.02,1.42-.09,2.12-.21.87-.16,1.51-.92,1.51-1.8s-.63-1.64-1.51-1.8c-3.88-.7-6.89-3.57-7.88-7.23,1.25.38,2.56.57,3.89.58h0c.83,0,1.56-.56,1.77-1.37.21-.81-.15-1.66-.88-2.06-3.17-1.77-5.14-5.13-5.14-8.75,0-1.05.16-2.09.48-3.07,2.75,3.06,6.07,5.62,9.72,7.49,4.75,2.42,9.87,3.66,15.24,3.66h0c.56,0,1.08-.25,1.43-.69.35-.44.48-1.01.35-1.55-.17-.75-.26-1.53-.26-2.31,0-5.69,4.63-10.32,10.32-10.32,2.89,0,5.56,1.16,7.54,3.27.45.48,1.13.69,1.78.53.96-.24,1.91-.52,2.85-.84-.53.52-1.12.98-1.77,1.38-.68.42-1.01,1.23-.81,2,.19.77.86,1.33,1.66,1.38.4.03.77.04,1.14.03-.61.54-1.23,1.05-1.88,1.54h0Z"/>
</svg>