<?xml version="1.0" encoding="UTF-8"?>
<svg id="Camada_1" data-name="Camada 1" xmlns="http://www.w3.org/2000/svg" viewBox="0 0 64 64">
  <defs>
    <style>
      .cls-1 {
        fill: #fff;
      }
    </style>
  </defs>
  <path class="cls-1" d="m42.02,30.31l-14.82-9.23c-.56-.35-1.28-.37-1.86-.05-.58.32-.94.94-.94,1.6v18.25c0,.66.36,1.27.93,1.6.28.16.59.23.9.23.33,0,.66-.09.95-.27l14.82-9.03c.54-.33.88-.92.88-1.55s-.32-1.23-.86-1.56Zm-13.96,7.32v-11.7l9.5,5.91-9.5,5.79Z"/>
  <path class="cls-1" d="m50.55,9.35H13.3C6.35,9.35.69,15,.69,21.96v19.6c0,6.95,5.66,12.61,12.61,12.61h37.25c6.95,0,12.61-5.66,12.61-12.61v-19.6c0-6.95-5.66-12.61-12.61-12.61Zm8.95,32.22c0,4.94-4.02,8.95-8.95,8.95H13.3c-4.94,0-8.95-4.02-8.95-8.95v-19.6c0-4.94,4.02-8.95,8.95-8.95h37.25c4.94,0,8.95,4.02,8.95,8.95v19.6Z"/>
</svg>