<?xml version="1.0" encoding="UTF-8"?>
<svg id="Camada_2" data-name="Camada 2" xmlns="http://www.w3.org/2000/svg" viewBox="0 0 65.47 51.2">
  <defs>
    <style>
      .cls-1 {
        fill: #fff;
      }

      .cls-2 {
        fill: #1b1b1a;
      }

      .cls-3 {
        opacity: .2;
      }
    </style>
  </defs>
  <g id="Camada_1-2" data-name="Camada 1">
    <g>
      <g class="cls-3">
        <path class="cls-2" d="M25.59,21.65c-3.61,0-6.55,3.24-6.55,7.22s2.94,7.22,6.55,7.22,6.55-3.24,6.55-7.22-2.94-7.22-6.55-7.22h0Zm0,10.77c-1.59,0-2.89-1.6-2.89-3.56s1.3-3.56,2.89-3.56,2.89,1.6,2.89,3.56-1.3,3.56-2.89,3.56h0Z"/>
        <path class="cls-2" d="M42.88,21.65c-3.61,0-6.55,3.24-6.55,7.22s2.94,7.22,6.55,7.22,6.55-3.24,6.55-7.22-2.94-7.22-6.55-7.22Zm0,10.77c-1.59,0-2.89-1.6-2.89-3.56s1.3-3.56,2.89-3.56,2.89,1.6,2.89,3.56-1.3,3.56-2.89,3.56Z"/>
        <path class="cls-2" d="M65.47,41.1c-.04-.77-1.14-19.08-8.09-30.03-.14-.22-.33-.41-.55-.56-8.59-5.53-14.45-5.52-14.69-5.52-.71,0-1.32,.42-1.62,1.02l-2.95,5.66c-1.1-.07-2.21-.11-3.33-.11s-2.23,.04-3.33,.11l-2.95-5.65c-.29-.6-.91-1.02-1.62-1.03-.25,0-6.1-.01-14.69,5.52-.22,.14-.41,.33-.55,.56C4.14,22.03,3.05,40.33,3,41.1c-.03,.49,.14,.96,.46,1.32,.32,.36,7.98,8.77,18.56,8.77,.05,0,.1,0,.14,0,.56,0,1.08-.26,1.42-.7l4.88-6.2c1.88,.21,3.8,.33,5.75,.33s3.88-.11,5.75-.33l4.88,6.2c.34,.44,.87,.69,1.42,.7,.05,0,.1,0,.14,0,10.58,0,18.24-8.41,18.56-8.77,.32-.36,.49-.84,.46-1.32h0Zm-18.28,6.42l-3.05-3.87c4.65-.96,8.82-2.58,12.07-4.77,.84-.56,1.06-1.7,.5-2.54-.56-.84-1.7-1.06-2.54-.5-4.86,3.26-12.12,5.13-19.93,5.13s-15.07-1.87-19.93-5.13c-.84-.56-1.98-.34-2.54,.5-.56,.84-.34,1.98,.5,2.54,3.26,2.18,7.43,3.81,12.07,4.77l-3.05,3.87c-7.17-.33-12.87-5.34-14.57-7.01,.28-3.55,1.76-18.17,7.26-27.14,5.4-3.41,9.47-4.35,11.29-4.62l1.74,3.33c-4.08,.6-7.91,1.69-11.17,3.23-.91,.43-1.31,1.52-.88,2.44,.43,.91,1.52,1.31,2.44,.88,4.65-2.19,10.64-3.4,16.85-3.4s12.19,1.21,16.85,3.4c.25,.12,.52,.17,.78,.17,.69,0,1.35-.39,1.66-1.05,.43-.91,.04-2-.88-2.44-3.26-1.53-7.08-2.63-11.17-3.23l1.74-3.33c1.82,.26,5.89,1.21,11.29,4.62,5.49,8.96,6.97,23.6,7.26,27.14-1.7,1.67-7.38,6.67-14.57,7h0Z"/>
      </g>
      <g>
        <path class="cls-1" d="M22.59,16.65c-3.61,0-6.55,3.24-6.55,7.22s2.94,7.22,6.55,7.22,6.55-3.24,6.55-7.22-2.94-7.22-6.55-7.22h0Zm0,10.77c-1.59,0-2.89-1.6-2.89-3.56s1.3-3.56,2.89-3.56,2.89,1.6,2.89,3.56-1.3,3.56-2.89,3.56h0Z"/>
        <path class="cls-1" d="M39.88,16.65c-3.61,0-6.55,3.24-6.55,7.22s2.94,7.22,6.55,7.22,6.55-3.24,6.55-7.22-2.94-7.22-6.55-7.22Zm0,10.77c-1.59,0-2.89-1.6-2.89-3.56s1.3-3.56,2.89-3.56,2.89,1.6,2.89,3.56-1.3,3.56-2.89,3.56Z"/>
        <path class="cls-1" d="M62.47,36.1c-.04-.77-1.14-19.08-8.09-30.03-.14-.22-.33-.41-.55-.56C45.23-.01,39.38,0,39.13,0c-.71,0-1.32,.42-1.62,1.02l-2.95,5.66c-1.1-.07-2.21-.11-3.33-.11s-2.23,.04-3.33,.11l-2.95-5.65C24.67,.43,24.05,0,23.34,0c-.25,0-6.1-.01-14.69,5.52-.22,.14-.41,.33-.55,.56C1.14,17.03,.05,35.33,0,36.1c-.03,.49,.14,.96,.46,1.32,.32,.36,7.98,8.77,18.56,8.77,.05,0,.1,0,.14,0,.56,0,1.08-.26,1.42-.7l4.88-6.2c1.88,.21,3.8,.33,5.75,.33s3.88-.11,5.75-.33l4.88,6.2c.34,.44,.87,.69,1.42,.7,.05,0,.1,0,.14,0,10.58,0,18.24-8.41,18.56-8.77,.32-.36,.49-.84,.46-1.32h0Zm-18.28,6.42l-3.05-3.87c4.65-.96,8.82-2.58,12.07-4.77,.84-.56,1.06-1.7,.5-2.54-.56-.84-1.7-1.06-2.54-.5-4.86,3.26-12.12,5.13-19.93,5.13s-15.07-1.87-19.93-5.13c-.84-.56-1.98-.34-2.54,.5-.56,.84-.34,1.98,.5,2.54,3.26,2.18,7.43,3.81,12.07,4.77l-3.05,3.87c-7.17-.33-12.87-5.34-14.57-7.01,.28-3.55,1.76-18.17,7.26-27.14,5.4-3.41,9.47-4.35,11.29-4.62l1.74,3.33c-4.08,.6-7.91,1.69-11.17,3.23-.91,.43-1.31,1.52-.88,2.44,.43,.91,1.52,1.31,2.44,.88,4.65-2.19,10.64-3.4,16.85-3.4s12.19,1.21,16.85,3.4c.25,.12,.52,.17,.78,.17,.69,0,1.35-.39,1.66-1.05,.43-.91,.04-2-.88-2.44-3.26-1.53-7.08-2.63-11.17-3.23l1.74-3.33c1.82,.26,5.89,1.21,11.29,4.62,5.49,8.96,6.97,23.6,7.26,27.14-1.7,1.67-7.38,6.67-14.57,7h0Z"/>
      </g>
    </g>
  </g>
</svg>