<?xml version="1.0" encoding="UTF-8"?>
<svg id="Camada_2" data-name="Camada 2" xmlns="http://www.w3.org/2000/svg" viewBox="0 0 65.47 67.47">
  <defs>
    <style>
      .cls-1 {
        fill: #ce5424;
      }

      .cls-2 {
        fill: #1b1b1a;
      }

      .cls-3 {
        opacity: .2;
      }
    </style>
  </defs>
  <g id="Camada_1-2" data-name="Camada 1">
    <g>
      <g class="cls-3">
        <path class="cls-2" d="M34.24,20.68c-8.58,0-15.55,6.98-15.55,15.55s6.98,15.55,15.55,15.55,15.55-6.98,15.55-15.55-6.98-15.55-15.55-15.55h0Zm0,27.44c-6.56,0-11.89-5.33-11.89-11.89s5.33-11.89,11.89-11.89,11.89,5.33,11.89,11.89-5.33,11.89-11.89,11.89Z"/>
        <path class="cls-2" d="M48.94,5H19.53C10.42,5,3,12.42,3,21.53v29.41c0,9.12,7.42,16.53,16.53,16.53h29.41c9.12,0,16.53-7.42,16.53-16.53V21.53c0-9.12-7.42-16.53-16.53-16.53Zm12.87,45.94c0,7.1-5.77,12.87-12.87,12.87H19.53c-7.1,0-12.87-5.77-12.87-12.87V21.53c0-7.1,5.77-12.87,12.87-12.87h29.41c7.1,0,12.87,5.77,12.87,12.87v29.41Z"/>
        <path class="cls-2" d="M51.63,17.01c-.48,0-.95,.2-1.29,.54-.34,.34-.54,.81-.54,1.29s.2,.95,.54,1.29c.34,.34,.81,.54,1.29,.54s.95-.2,1.29-.54,.54-.81,.54-1.29-.2-.95-.54-1.29c-.34-.34-.81-.54-1.29-.54Z"/>
      </g>
      <g>
        <path class="cls-1" d="M31.24,15.68c-8.58,0-15.55,6.98-15.55,15.55s6.98,15.55,15.55,15.55,15.55-6.98,15.55-15.55-6.98-15.55-15.55-15.55h0Zm0,27.44c-6.56,0-11.89-5.33-11.89-11.89s5.33-11.89,11.89-11.89,11.89,5.33,11.89,11.89-5.33,11.89-11.89,11.89Z"/>
        <path class="cls-1" d="M45.94,0H16.53C7.42,0,0,7.42,0,16.53v29.41c0,9.12,7.42,16.53,16.53,16.53h29.41c9.12,0,16.53-7.42,16.53-16.53V16.53C62.47,7.42,55.05,0,45.94,0Zm12.87,45.94c0,7.1-5.77,12.87-12.87,12.87H16.53c-7.1,0-12.87-5.77-12.87-12.87V16.53c0-7.1,5.77-12.87,12.87-12.87h29.41c7.1,0,12.87,5.77,12.87,12.87v29.41Z"/>
        <path class="cls-1" d="M48.63,12.01c-.48,0-.95,.2-1.29,.54-.34,.34-.54,.81-.54,1.29s.2,.95,.54,1.29c.34,.34,.81,.54,1.29,.54s.95-.2,1.29-.54,.54-.81,.54-1.29-.2-.95-.54-1.29c-.34-.34-.81-.54-1.29-.54Z"/>
      </g>
    </g>
  </g>
</svg>