<?xml version="1.0" encoding="UTF-8"?>
<svg id="Camada_2" data-name="Camada 2" xmlns="http://www.w3.org/2000/svg" viewBox="0 0 65.47 49.83">
  <defs>
    <style>
      .cls-1 {
        fill: #ce5424;
      }

      .cls-2 {
        fill: #1b1b1a;
        opacity: .2;
      }
    </style>
  </defs>
  <g id="Camada_1-2" data-name="Camada 1">
    <g>
      <g>
        <path class="cls-2" d="M44.33,25.96l-14.82-9.23c-.56-.35-1.28-.37-1.86-.05-.58,.32-.94,.94-.94,1.6v18.25c0,.66,.36,1.27,.93,1.6,.28,.16,.59,.23,.9,.23,.33,0,.66-.09,.95-.27l14.82-9.03c.54-.33,.88-.92,.88-1.55s-.32-1.23-.86-1.56Zm-13.96,7.32v-11.7l9.5,5.91-9.5,5.79Z"/>
        <path class="cls-2" d="M52.86,5H15.61c-6.95,0-12.61,5.66-12.61,12.61v19.6c0,6.95,5.66,12.61,12.61,12.61H52.86c6.95,0,12.61-5.66,12.61-12.61V17.61c0-6.95-5.66-12.61-12.61-12.61Zm8.95,32.22c0,4.94-4.02,8.95-8.95,8.95H15.61c-4.94,0-8.95-4.02-8.95-8.95V17.61c0-4.94,4.02-8.95,8.95-8.95H52.86c4.94,0,8.95,4.02,8.95,8.95v19.6Z"/>
      </g>
      <g>
        <path class="cls-1" d="M41.33,20.96l-14.82-9.23c-.56-.35-1.28-.37-1.86-.05-.58,.32-.94,.94-.94,1.6V31.54c0,.66,.36,1.27,.93,1.6,.28,.16,.59,.23,.9,.23,.33,0,.66-.09,.95-.27l14.82-9.03c.54-.33,.88-.92,.88-1.55s-.32-1.23-.86-1.56Zm-13.96,7.32v-11.7l9.5,5.91-9.5,5.79Z"/>
        <path class="cls-1" d="M49.86,0H12.61C5.66,0,0,5.66,0,12.61v19.6c0,6.95,5.66,12.61,12.61,12.61H49.86c6.95,0,12.61-5.66,12.61-12.61V12.61C62.47,5.66,56.81,0,49.86,0Zm8.95,32.22c0,4.94-4.02,8.95-8.95,8.95H12.61c-4.94,0-8.95-4.02-8.95-8.95V12.61C3.66,7.68,7.68,3.66,12.61,3.66H49.86c4.94,0,8.95,4.02,8.95,8.95v19.6Z"/>
      </g>
    </g>
  </g>
</svg>